<svg id="Layer_1" data-name="Layer 1" xmlns="http://www.w3.org/2000/svg" viewBox="0 0 512 512"><title>apple-logo</title><path d="M461.79,398.44a277.28,277.28,0,0,1-27.42,49.3Q412.74,478.58,399,490.43q-21.15,19.45-45.39,20c-11.62,0-25.63-3.31-41.93-10s-31.4-10-45.14-10q-21.63,0-46.42,10T180,511q-23.28,1-46.42-20.53-14.78-12.89-36.94-44.2-23.76-33.43-39.07-77.6-16.39-47.74-16.4-92.48,0-51.27,22.18-88.36a130.1,130.1,0,0,1,46.45-47,125,125,0,0,1,62.8-17.72c12.32,0,28.49,3.81,48.57,11.3s32.89,11.33,38.53,11.33c4.22,0,18.5-4.46,42.72-13.34Q336.8,120,360.52,122.06q64.36,5.19,96.58,50.85-57.56,34.88-57,97.6.52,48.81,35.35,81.12a116.18,116.18,0,0,0,35.32,23.17q-4.25,12.32-9,23.64ZM363.38,11.2q0,38.26-27.89,71.36c-22.41,26.2-49.53,41.35-78.92,39a79.4,79.4,0,0,1-.59-9.66c0-24.49,10.66-50.69,29.59-72.12q14.18-16.27,36-27.06Q343.42,2,362.84,1a92.64,92.64,0,0,1,.54,10.2Z"/></svg>