<svg id="Layer_1" data-name="Layer 1" xmlns="http://www.w3.org/2000/svg" viewBox="0 0 1024 1024"><defs><style>.cls-1{fill:none;}</style></defs><title>bar-plot-circle</title><path d="M1024,512C1024,229.23,794.77,0,512,0S0,229.23,0,512s229.23,512,512,512S1024,794.77,1024,512ZM62,512C62,263.47,263.47,62,512,62S962,263.47,962,512,760.53,962,512,962,62,760.53,62,512Z"/><path class="cls-1" d="M-522.25,776.75h874.5v874.5h-874.5Z"/><path class="cls-1" d="M-523.25,775.75h868.5v868.5h-868.5Z"/><path d="M436.67,812.64l150.39.1.41-601.55-150.39-.1Zm-225.58-.15,150.39.1.21-300.77-150.39-.1ZM662.53,399.24l-.28,413.56,150.39.1.28-413.56Z"/></svg>