<svg id="Layer_1" data-name="Layer 1" xmlns="http://www.w3.org/2000/svg" viewBox="0 0 1024 1024"><defs><style>.cls-1{fill:none;}</style></defs><title>data-persistence-circle</title><path d="M1024,512C1024,229.23,794.77,0,512,0S0,229.23,0,512s229.23,512,512,512S1024,794.77,1024,512ZM62,512C62,263.47,263.47,62,512,62S962,263.47,962,512,760.53,962,512,962,62,760.53,62,512Z"/><path class="cls-1" d="M0,0H1024V1024H0Z"/><path d="M781.82,357.82,627.64,512H743.27c0,127.59-103.69,231.27-231.27,231.27a226.28,226.28,0,0,1-107.93-27L347.8,772.57A305.7,305.7,0,0,0,512,820.36c170.37,0,308.36-138,308.36-308.36H936ZM280.73,512c0-127.59,103.69-231.27,231.27-231.27a226.28,226.28,0,0,1,107.93,27l56.28-56.28A305.7,305.7,0,0,0,512,203.64c-170.37,0-308.36,138-308.36,308.36H88L242.18,666.18,396.36,512Z"/></svg>