<svg id="Layer_1" data-name="Layer 1" xmlns="http://www.w3.org/2000/svg" viewBox="0 0 1024 1024"><defs><style>.cls-1{fill:none;}</style></defs><title>graphs-circle</title><path d="M1024,512C1024,229.23,794.77,0,512,0S0,229.23,0,512s229.23,512,512,512S1024,794.77,1024,512ZM62,512C62,263.47,263.47,62,512,62S962,263.47,962,512,760.53,962,512,962,62,760.53,62,512Z"/><path d="M876.37,336.19,825,284.81l-103.85,117c-75.06-84.54-178.91-135.55-296.24-135.55-105.3,0-201.86,42.27-277.29,109.31l51.74,51.74C261.31,373,339.65,339.1,424.91,339.1c99.84,0,185.47,45.91,246.68,118.06L566.66,575.22,420.91,429.47,147.62,703.11l54.66,54.66,218.63-219L566.66,684.53,714.23,518.74c27.33,49.19,45.55,105.67,52.47,165.79h73.24c-8-83.81-34.62-160-74.33-223.73Z"/><path class="cls-1" d="M583.75-308.25h874.5v874.5H583.75Z"/><path class="cls-1" d="M582.75-309.25h868.5v868.5H582.75Z"/></svg>