<svg id="Layer_1" data-name="Layer 1" xmlns="http://www.w3.org/2000/svg" viewBox="0 0 1024 1024"><defs><style>.cls-1{isolation:isolate;}</style></defs><title>html5-circle</title><path d="M1024,512C1024,229.23,794.77,0,512,0S0,229.23,0,512s229.23,512,512,512S1024,794.77,1024,512ZM62,512C62,263.47,263.47,62,512,62S962,263.47,962,512,760.53,962,512,962,62,760.53,62,512Z"/><path d="M263,196h38.84v38.38h35.54V196H376.2V312.22H337.35V273.3H301.82v38.91H263Z"/><path d="M427.28,234.54h-34.2V196H500.34v38.54H466.13v77.68H427.28V234.54Z"/><path d="M517.37,196h40.5l24.91,40.84L607.68,196H648.2V312.22H609.52v-57.6l-26.73,41.32h-.67l-26.74-41.32v57.6h-38Z"/><path d="M667.53,196h38.86v77.81H761v38.41H667.53Z"/><path class="cls-1" d="M263.17,343.09l45.33,508.43L512,908l203.66-56.46L761,343.09Zm121.09,421.6-8.93-100.12h62.6l4.64,51.94L512,735.26l.09,0h0l69.52-18.77,7.24-80.88H372.74L355.92,447H668.28l-5.59,62.36H424.07l5.7,63.85H657L639.91,764.69,512.1,800.12l-.1,0Z"/></svg>