<svg id="Layer_1" data-name="Layer 1" xmlns="http://www.w3.org/2000/svg" viewBox="0 0 1024 1024"><title>ide-choice-circle</title><path d="M1024,512C1024,229.23,794.77,0,512,0S0,229.23,0,512s229.23,512,512,512S1024,794.77,1024,512ZM62,512C62,263.47,263.47,62,512,62S962,263.47,962,512,760.53,962,512,962,62,760.53,62,512Z"/><rect x="480.25" y="427.26" width="257.72" height="42.37"/><rect x="480.25" y="497.88" width="257.72" height="42.37"/><rect x="480.25" y="568.49" width="257.72" height="42.37"/><path d="M766.21,271.91H257.79a56.66,56.66,0,0,0-56.49,56.49V695.6a56.66,56.66,0,0,0,56.49,56.49H766.21a56.66,56.66,0,0,0,56.49-56.49V328.4A56.66,56.66,0,0,0,766.21,271.91ZM404,697H250V330H404Zm362.21-1.4H452V328.4H766.21Z"/></svg>