<svg id="Layer_1" data-name="Layer 1" xmlns="http://www.w3.org/2000/svg" viewBox="0 0 1024 1024"><title>js-circel</title><path d="M1024,512C1024,229.23,794.77,0,512,0S0,229.23,0,512s229.23,512,512,512S1024,794.77,1024,512ZM62,512C62,263.47,263.47,62,512,62S962,263.47,962,512,760.53,962,512,962,62,760.53,62,512Z"/><path d="M114.35,491.71c35.89-1,39.53-19.77,39.53-35.37,0-13-1.56-26.53-3.12-40.57a379,379,0,0,1-2.6-41.09c0-48.89,30.69-70.22,79.06-70.22h18.21v44.21h-9.36c-23.41,0-31.73,14-31.73,36.93,0,9.36,1.56,18.73,2.6,29.65,1,10.4,2.6,22.37,2.6,35.37.52,39.53-15.6,54.1-44.21,60.34v1c28.61,6.24,44.73,21.33,44.21,60.86,0,13.52-1.56,25.49-2.6,36.41-1,10.4-2.6,20.29-2.6,29.13,0,22.89,7.8,37.45,31.73,37.45h9.36v43.69H226.7c-46.29,0-78.54-18.73-78.54-70.74a379,379,0,0,1,2.6-41.09c1.56-14,3.12-27.57,3.12-40.57,0-14.56-3.64-34.33-39.53-35.37Z"/><path d="M370.26,310.7h79.06V532.29c0,99.87-47.85,134.72-124.84,134.72-18.21,0-42.13-3.12-57.74-8.32l8.84-64a130.41,130.41,0,0,0,40.57,6.24c33.29,0,54.1-15.08,54.1-69.7Z"/><path d="M518,579.62c21.33,10.92,54.1,21.85,87.91,21.85,36.41,0,55.66-15.08,55.66-38,0-21.85-16.64-34.33-58.78-49.41-58.26-20.29-96.23-52.53-96.23-103.51,0-59.82,49.93-105.59,132.64-105.59,39.53,0,68.66,8.32,89.47,17.69l-17.68,64A166.66,166.66,0,0,0,637.61,370c-34.33,0-51,15.6-51,33.81,0,22.37,19.77,32.25,65,49.41,61.9,22.89,91,55.14,91,104.55,0,58.78-45.25,108.71-141.48,108.71-40.05,0-79.58-10.4-99.35-21.33Z"/><path d="M909.65,531.77c-35.37,1-39.53,20.81-39.53,35.37,0,13,1.56,26.53,3.12,40.57s3.12,28.09,3.12,41.09c0,52-32.25,70.74-79.06,70.74H778.57V675.85h9.36c23.93-.52,31.73-14.56,31.73-37.45a201.3,201.3,0,0,0-2.6-29.13c-1-10.92-2.6-22.89-2.6-36.41-.52-39.53,15.6-54.62,44.73-60.86v-1c-29.13-6.24-45.25-20.81-44.73-60.34,0-13,1.56-25,2.6-35.37,1.56-10.92,2.6-20.29,2.6-29.65,0-22.89-8.32-36.41-31.73-36.93h-9.36V304.46h18.21c48.89,0,79.58,21.33,79.58,70.22,0,13-1.56,27-3.12,41.09s-3.12,27.57-3.12,40.57c0,15.6,4.16,34.33,39.53,35.37Z"/></svg>