<svg id="Layer_1" data-name="Layer 1" xmlns="http://www.w3.org/2000/svg" viewBox="0 0 1024 1024"><defs><style>.cls-1{fill:none;}</style></defs><title>line-plot-circle</title><path d="M1024,512C1024,229.23,794.77,0,512,0S0,229.23,0,512s229.23,512,512,512S1024,794.77,1024,512ZM62,512C62,263.47,263.47,62,512,62S962,263.47,962,512,760.53,962,512,962,62,760.53,62,512Z"/><path class="cls-1" d="M-522.25-308.25h874.5v874.5h-874.5Z"/><path class="cls-1" d="M-523.25-309.25h868.5v868.5h-868.5Z"/><path d="M877,379.27a66.56,66.56,0,0,1-66.36,66.36,56.4,56.4,0,0,1-16.92-2.32L675.59,561.11a58.61,58.61,0,0,1,2.32,17.25,66.36,66.36,0,1,1-132.73,0,58.61,58.61,0,0,1,2.32-17.25L462.89,476.5a65.25,65.25,0,0,1-34.51,0L277.4,627.8a56.4,56.4,0,0,1,2.32,16.92,66.36,66.36,0,1,1-66.36-66.36,56.4,56.4,0,0,1,16.92,2.32l151.31-151a58.61,58.61,0,0,1-2.32-17.25,66.36,66.36,0,1,1,132.73,0,58.61,58.61,0,0,1-2.32,17.25l84.61,84.61a65.25,65.25,0,0,1,34.51,0L746.6,396.2a56.4,56.4,0,0,1-2.32-16.92,66.36,66.36,0,1,1,132.73,0Z"/></svg>