<svg id="Layer_1" data-name="Layer 1" xmlns="http://www.w3.org/2000/svg" viewBox="0 0 256 176.97"><title>logo-black</title><path d="M254.23,46.7C238,35.64,186.75.71,186.46.57A6.3,6.3,0,0,0,183.54,0a7.44,7.44,0,0,0-2,.07A7.19,7.19,0,0,0,176.35,4a6.38,6.38,0,0,0-.69,3,4.64,4.64,0,0,0,.1,1.44c0,.22,3.72,12,5.68,18.42H74.49A75.19,75.19,0,0,0,0,102a74.8,74.8,0,0,0,74.4,74.88l29.33.06V132.43l-29.3,0a30.26,30.26,0,0,1-.27-60.51H115V176.5h45V72h21.69c-1.86,6.43-5.9,19.27-6,19.5a9.33,9.33,0,0,0,.1,3.3,7.33,7.33,0,0,0,5.73,5.29,7.5,7.5,0,0,0,2,.07,6.25,6.25,0,0,0,2.93-.6c.27-.13,10.58-7.08,22.88-15.47,25.95-17.7,38.84-26.51,44.9-30.66A4,4,0,0,0,254.23,46.7Z"/></svg>