<svg id="Layer_1" data-name="Layer 1" xmlns="http://www.w3.org/2000/svg" viewBox="0 0 1024 1024"><title>number-circle-2</title><path d="M512,0C229.23,0,0,229.23,0,512s229.23,512,512,512,512-229.23,512-512S794.77,0,512,0ZM719.16,649.85,657,811.76c-2.63,7-5.25,9.63-13.13,9.63-7,0-7.88-1.75-11.38-8.75-5.25-11.38-21.88-12.25-56.89-12.25H385.7c-14.88,0-30.63.88-43.76,1.75s-23.63,1.75-27.13,1.75c-4.38,0-7,0-9.63-5.25-2.63-6.13-.88-15.75,5.25-21,31.51-28.88,105.9-98,169.79-179.42,54.26-68.27,89.27-136.53,86.65-212.68C564.24,320.77,524,277,465.35,278.76c-50.76,2.63-83.15,36.76-102.4,68.27-4.38,7-7,7-10.5,5.25l-14.88-6.13c-2.63-1.75-3.5-4.38,0-12.25,14-34.13,62.14-131.28,188.17-131.28,95.4,0,166.29,72.64,166.29,159.29,0,74.39-35,146.16-132.16,237.18-50.76,47.26-90.15,79.64-117.28,105v3.5H594c56.89,0,79.64-34.13,98.9-66.52,4.38-7.88,7-9.63,15.75-5.25C718.28,640.22,721.78,643.72,719.16,649.85Z"/></svg>