<svg id="Layer_1" data-name="Layer 1" xmlns="http://www.w3.org/2000/svg" viewBox="0 0 1024 1024"><title>number-circle-1</title><path d="M512,0C229.23,0,0,229.23,0,512s229.23,512,512,512,512-229.23,512-512S794.77,0,512,0ZM668,790.14c0,4.14-2.48,5.79-9.11,5.79-5.79,0-118.37-2.48-132.44-2.48-24,0-140.72,2.48-144.86,2.48-5,0-6.62-1.66-6.62-5.79V767.79c0-5,5-5.79,11.59-5.79h21.52c45.53,0,57.95-2.48,59.6-44.7,1.66-34.77.83-125.82.83-155.62V381.21c0-19.87-4.14-38.08-19-38.08-8.28,0-19,.83-37.25,5.79l-40.56,11.59c-4.14.83-7.45.83-9.11-2.48l-5.79-16.56c-1.66-3.31-.83-6.62,5-9.93L562.87,233c5.79-2.48,9.93-5,15.73-5,5,0,7.45,5.79,7.45,12.42s-2.48,136.58-2.48,243.37v34.77c0,43,.83,185.42.83,194.53.83,43,4.14,48.84,45.53,48.84h29.8c5.79,0,8.28,2.48,8.28,6.62Z"/></svg>