<svg id="Layer_1" data-name="Layer 1" xmlns="http://www.w3.org/2000/svg" viewBox="0 0 1024 1024"><title>number-circle-4</title><path d="M492.56,393.34,356.62,563.67c-7.55,9.23-5,16.78,5.87,16.78h146V395C508.5,383.27,500.11,383.27,492.56,393.34Z"/><path d="M512,0C229.23,0,0,229.23,0,512s229.23,512,512,512,512-229.23,512-512S794.77,0,512,0ZM678,648.42c0,5-2.52,8.39-13.43,8.39H615.07v120c0,9.23-1.68,11.75-11.75,11.75H517.73c-7.55,0-10.07-.84-10.07-9.23V656.82H291.17c-15.1,0-25.17-5.87-25.17-15.94,0-13.43,8.39-24.33,15.1-32.73L581.5,228.87c5-6.71,11.75-13.43,21.82-13.43,8.39,0,11.75,5.87,11.75,28.53V580.46h52.86c5.87,0,10.07,3.36,10.07,7.55Z"/></svg>