<svg id="Layer_1" data-name="Layer 1" xmlns="http://www.w3.org/2000/svg" viewBox="0 0 1024 1024"><title>number-circle-3</title><path d="M512,0C229.23,0,0,229.23,0,512s229.23,512,512,512,512-229.23,512-512S794.77,0,512,0ZM457.92,811.6c-105.59,0-133.92-42.92-133.92-67,0-22.32,16.31-43.78,36.06-44.64,34.34,0,48.93,28.33,56.66,44.64,5.15,11.16,17.17,30,55.8,30,60.95,0,99.58-56.66,99.58-118.47,0-77.26-38.63-127.05-121-145.94-17.17-4.29-19.74-7.73-19.74-16.31,0-10.3,2.57-13.73,14.59-16.31,67-12.88,109-49.79,109-115.89,0-39.49-24.89-83.27-78.12-83.27-48.07,0-79,36.05-97,80.69-4.29,10.3-7.73,11.16-10.3,10.3l-17.17-5.15c-4.29-.86-5.15-5.15-3.43-12.88,12-59.23,63.52-139.07,171.69-139.07,103.87,0,147.65,66.1,150.23,117.61,0,67.82-52.36,113.31-109.88,144.22v1.72C628.75,487.11,700,546.34,700,621.88,700,722.32,601.28,811.6,457.92,811.6Z"/></svg>