<svg id="Layer_1" data-name="Layer 1" xmlns="http://www.w3.org/2000/svg" viewBox="0 0 131.24 128"><defs><style>.cls-1{fill:#fff;fill-rule:evenodd;}</style></defs><title>octocat-logo</title><path class="cls-1" d="M65.62,2A63.58,63.58,0,0,0,45.53,125.89c3.18.58,4.34-1.38,4.34-3.06,0-1.51-.06-5.51-.09-10.81-17.68,3.84-21.41-8.52-21.41-8.52-2.89-7.34-7.06-9.3-7.06-9.3-5.77-3.94.44-3.86.44-3.86,6.38.45,9.74,6.55,9.74,6.55,5.67,9.71,14.88,6.91,18.5,5.28.58-4.11,2.22-6.91,4-8.5-14.12-1.6-29-7.06-29-31.42A24.57,24.57,0,0,1,31.6,45.19c-.65-1.61-2.84-8.07.62-16.82,0,0,5.34-1.71,17.48,6.52a60.25,60.25,0,0,1,31.83,0C93.68,26.66,99,28.36,99,28.36c3.47,8.75,1.29,15.22.63,16.82a24.53,24.53,0,0,1,6.53,17.06c0,24.42-14.86,29.79-29,31.37,2.28,2,4.32,5.84,4.32,11.77,0,8.5-.08,15.35-.08,17.44,0,1.7,1.14,3.68,4.37,3.06A63.58,63.58,0,0,0,65.62,2Z"/></svg>