<svg id="Layer_1" data-name="Layer 1" xmlns="http://www.w3.org/2000/svg" viewBox="0 0 1024 1024"><defs><style>.cls-1{fill:#f9b040;}</style></defs><title>order-circle</title><path class="cls-1" d="M1024,512C1024,229.23,794.77,0,512,0S0,229.23,0,512s229.23,512,512,512S1024,794.77,1024,512ZM62,512C62,263.47,263.47,62,512,62S962,263.47,962,512,760.53,962,512,962,62,760.53,62,512Z"/><path class="cls-1" d="M206.32,494H386.13V278.24H206.32Zm0,251.74H386.13V530H206.32Zm215.78,0H601.91V530H422.09Zm215.78,0H817.68V530H637.87ZM422.09,494H601.91V278.24H422.09ZM637.87,278.24V494H817.68V278.24Z"/></svg>