<svg id="Layer_1" data-name="Layer 1" xmlns="http://www.w3.org/2000/svg" viewBox="0 0 1024 1024"><defs><style>.cls-1{fill:none;}</style></defs><title>pie-chart-circle</title><path d="M1024,512C1024,229.23,794.77,0,512,0S0,229.23,0,512s229.23,512,512,512S1024,794.77,1024,512ZM62,512C62,263.47,263.47,62,512,62S962,263.47,962,512,760.53,962,512,962,62,760.53,62,512Z"/><path class="cls-1" d="M28.25,28.25h967.5v967.5H28.25Z"/><path d="M222.65,275.26,748.74,801.35C602.22,921.56,386,912.09,249,775S102.44,421.78,222.65,275.26Zm53.4-53.4L512.53,458.34l236-236C611.43,110.07,412.83,109.81,276,221.86ZM565.66,511.47,802.14,748c112.32-137,111.79-335.38-.53-472.43Z"/></svg>