<svg id="Layer_1" data-name="Layer 1" xmlns="http://www.w3.org/2000/svg" viewBox="0 0 1024 1024"><title>production-circle</title><path d="M1024,512C1024,229.23,794.77,0,512,0S0,229.23,0,512s229.23,512,512,512S1024,794.77,1024,512ZM62,512C62,263.47,263.47,62,512,62S962,263.47,962,512,760.53,962,512,962,62,760.53,62,512Z"/><path d="M747.56,541.44H276.44A29.53,29.53,0,0,0,247,570.89V747.56A29.53,29.53,0,0,0,276.44,777H747.56A29.53,29.53,0,0,0,777,747.56V570.89A29.53,29.53,0,0,0,747.56,541.44ZM364.78,718.11a58.89,58.89,0,1,1,58.89-58.89A59.06,59.06,0,0,1,364.78,718.11ZM747.56,247H276.44A29.53,29.53,0,0,0,247,276.44V453.11a29.53,29.53,0,0,0,29.44,29.44H747.56A29.53,29.53,0,0,0,777,453.11V276.44A29.53,29.53,0,0,0,747.56,247ZM364.78,423.67a58.89,58.89,0,1,1,58.89-58.89A59.06,59.06,0,0,1,364.78,423.67Z"/></svg>