<svg id="Layer_1" data-name="Layer 1" xmlns="http://www.w3.org/2000/svg" viewBox="0 0 1024 1024"><title>python-circle</title><path id="path1948" d="M507.88,162.27a476.48,476.48,0,0,0-79.74,6.81c-70.61,12.48-83.44,38.59-83.44,86.74v63.6H511.58v21.2H282.08c-48.5,0-91,29.15-104.25,84.6-15.32,63.56-16,103.23,0,169.59,11.86,49.4,40.19,84.6,88.69,84.6h57.37V603.18c0-55.08,47.66-103.66,104.25-103.66H594.82c46.4,0,83.44-38.2,83.44-84.8V255.82c0-45.22-38.15-79.19-83.44-86.74A520.48,520.48,0,0,0,507.88,162.27Zm-90.24,51.15c17.24,0,31.31,14.31,31.31,31.9a31.32,31.32,0,1,1-62.63,0C386.33,227.73,400.34,213.42,417.64,213.42Z"/><path id="path1950" d="M699.06,340.62v74.1c0,57.45-48.71,105.8-104.25,105.8H428.14c-45.66,0-83.44,39.07-83.44,84.8v158.9c0,45.22,39.32,71.82,83.44,84.8,52.82,15.53,103.48,18.34,166.68,0,42-12.16,83.44-36.64,83.44-84.8v-63.6H511.58v-21.2H761.69c48.5,0,66.57-33.83,83.44-84.6,17.42-52.27,16.68-102.54,0-169.59-12-48.28-34.88-84.6-83.44-84.6ZM605.32,743a31.49,31.49,0,0,1,31.31,31.7c0,17.59-14,31.9-31.31,31.9S574,792.31,574,774.72A31.53,31.53,0,0,1,605.32,743Z"/><path d="M1024,512C1024,229.23,794.77,0,512,0S0,229.23,0,512s229.23,512,512,512S1024,794.77,1024,512ZM62,512C62,263.47,263.47,62,512,62S962,263.47,962,512,760.53,962,512,962,62,760.53,62,512Z"/></svg>