<svg id="Layer_1" data-name="Layer 1" xmlns="http://www.w3.org/2000/svg" viewBox="0 0 1024 1024"><defs><style>.cls-1{fill:#f9b040;}</style></defs><title>touch-circle</title><path class="cls-1" d="M1024,512C1024,229.23,794.77,0,512,0S0,229.23,0,512s229.23,512,512,512S1024,794.77,1024,512ZM62,512C62,263.47,263.47,62,512,62S962,263.47,962,512,760.53,962,512,962,62,760.53,62,512Z"/><path class="cls-1" d="M409.24,440.54V322.29a79,79,0,0,1,158.09,0V440.54a142.29,142.29,0,1,0-158.09,0Zm311.13,146.4L576.82,515.48A44.53,44.53,0,0,0,559.74,512h-24V322.29a47.43,47.43,0,0,0-94.86,0V661.87L332.4,639.11a55.26,55.26,0,0,0-7.59-.95,35.37,35.37,0,0,0-25,10.43l-25,25.3,156.2,156.2A47.6,47.6,0,0,0,464.57,844H679.26c23.71,0,42.05-17.39,45.53-40.47L748.51,636.9a45.45,45.45,0,0,0-28.14-50Z"/></svg>