<svg id="Layer_1" data-name="Layer 1" xmlns="http://www.w3.org/2000/svg" viewBox="0 0 1024 1024"><defs><style>.cls-1{fill:#f9b040;}</style></defs><title>video-circle</title><path class="cls-1" d="M1024,512C1024,229.23,794.77,0,512,0S0,229.23,0,512s229.23,512,512,512S1024,794.77,1024,512ZM62,512C62,263.47,263.47,62,512,62S962,263.47,962,512,760.53,962,512,962,62,760.53,62,512Z"/><path class="cls-1" d="M411.9,454.25l183.65-318A396.76,396.76,0,0,0,512,127a384.39,384.39,0,0,0-243.32,86.63L409.59,458.1ZM879.29,396.5C843.87,284.08,758,194,648.29,152.41L507.38,396.5Zm10,38.5H600.94l11.16,19.25L795.36,771.87C858.5,703.34,897,612.48,897,512A389.77,389.77,0,0,0,889.3,435ZM378.79,512,228.64,252.12C165.88,320.66,127,411.52,127,512a389.77,389.77,0,0,0,7.7,77H423.06ZM144.71,627.5C180.13,739.92,266,830,375.71,871.59L516.62,627.5Zm433.9,0L428.45,887.76A396.76,396.76,0,0,0,512,897a384.39,384.39,0,0,0,243.32-86.63L614.41,565.9Z"/></svg>