<svg id="Layer_1" data-name="Layer 1" xmlns="http://www.w3.org/2000/svg" viewBox="0 0 1024 1024"><defs><style>.cls-1{fill:none;}</style></defs><title>world-circle</title><path d="M1024,512C1024,229.23,794.77,0,512,0S0,229.23,0,512s229.23,512,512,512S1024,794.77,1024,512ZM62,512C62,263.47,263.47,62,512,62S962,263.47,962,512,760.53,962,512,962,62,760.53,62,512Z"/><path class="cls-1" d="M-14,0H1010V1024H-14Z"/><path d="M511.65,165C320.11,165,165,320.46,165,512S320.11,859,511.65,859C703.54,859,859,703.54,859,512S703.54,165,511.65,165ZM752.12,373.2H649.76a543,543,0,0,0-47.89-123.53A278.63,278.63,0,0,1,752.12,373.2ZM512,235.79A488.81,488.81,0,0,1,578.28,373.2H445.72A488.81,488.81,0,0,1,512,235.79ZM243.42,581.4a271.43,271.43,0,0,1,0-138.8H360.71c-2.78,22.9-4.86,45.8-4.86,69.4s2.08,46.5,4.86,69.4Zm28.45,69.4H374.24a543,543,0,0,0,47.89,123.53A277.14,277.14,0,0,1,271.88,650.8ZM374.24,373.2H271.88A277.14,277.14,0,0,1,422.13,249.67,543,543,0,0,0,374.24,373.2ZM512,788.21A488.81,488.81,0,0,1,445.72,650.8H578.28A488.81,488.81,0,0,1,512,788.21ZM593.2,581.4H430.8c-3.12-22.9-5.55-45.8-5.55-69.4s2.43-46.85,5.55-69.4H593.2c3.12,22.55,5.55,45.8,5.55,69.4S596.32,558.5,593.2,581.4Zm8.67,192.93A543,543,0,0,0,649.76,650.8H752.12A278.63,278.63,0,0,1,601.87,774.33ZM663.29,581.4c2.78-22.9,4.86-45.8,4.86-69.4s-2.08-46.5-4.86-69.4H780.58a271.43,271.43,0,0,1,0,138.8Z"/></svg>