<svg id="Layer_1" data-name="Layer 1" xmlns="http://www.w3.org/2000/svg" viewBox="0 0 1024 1024"><title>wrench-circle</title><path d="M1024,512C1024,229.23,794.77,0,512,0S0,229.23,0,512s229.23,512,512,512S1024,794.77,1024,512ZM62,512C62,263.47,263.47,62,512,62S962,263.47,962,512,760.53,962,512,962,62,760.53,62,512Z"/><path d="M831.39,718.91,560.47,448c26.79-68.47,11.91-148.86-44.66-205.42C456.27,183,367,171.12,295.5,203.87l128,128L334.2,421.2l-131-128c-35.73,71.45-20.84,160.77,38.7,220.31,56.57,56.57,136.95,71.45,205.42,44.66L718.25,829.07c11.91,11.91,29.77,11.91,41.68,0l68.47-68.47C843.29,748.69,843.29,727.85,831.39,718.91Z"/></svg>